<?xml version="1.0" encoding="UTF-8"?>
<svg id="_图层_2" data-name="图层 2" xmlns="http://www.w3.org/2000/svg" viewBox="0 0 820.05 503.12">
  <defs>
    <style>
      .cls-1 {
        stroke: #84c147;
      }

      .cls-1, .cls-2, .cls-3 {
        fill: none;
        stroke-miterlimit: 10;
        stroke-width: 3px;
      }

      .cls-2 {
        stroke: #3dbce1;
      }

      .cls-3 {
        stroke: #e24893;
      }
    </style>
  </defs>
  <g id="_图层_1-2" data-name="图层 1">
    <g>
      <rect class="cls-1" x="229.49" y="60.72" width="28.36" height="28.36" rx="1.98" ry="1.98" transform="translate(50.73 -91.71) rotate(23.72)"/>
      <path class="cls-2" d="M767.23,212l2.75,51.76c.1,1.97,2.3,3.08,3.95,2.01l43.44-28.26c1.65-1.07,1.52-3.53-.24-4.43l-46.2-23.49c-1.76-.89-3.82.45-3.72,2.42Z"/>
      <rect class="cls-1" x="43.21" y="401.29" width="28.36" height="28.36" rx="1.98" ry="1.98" transform="translate(143.67 5.02) rotate(19.74)"/>
      <circle class="cls-3" cx="310.65" cy="66.62" r="14.87"/>
      <circle class="cls-3" cx="777.65" cy="153.62" r="14.87"/>
      <rect class="cls-1" x="706.46" y="60.44" width="28.36" height="28.36" rx="1.98" ry="1.98" transform="translate(90.92 -283.63) rotate(23.72)"/>
      <path class="cls-2" d="M29.63,496.74l-15.37-20.94c-.58-.8-1.81-.66-2.21.24l-10.45,23.78c-.4.9.33,1.9,1.31,1.79l25.82-2.84c.98-.11,1.48-1.24.89-2.03Z"/>
      <path class="cls-2" d="M232.88,27.71l16.1-20.38c.61-.77.16-1.92-.82-2.06l-25.7-3.75c-.98-.14-1.74.83-1.38,1.74l9.6,24.13c.36.92,1.59,1.1,2.2.32Z"/>
    </g>
  </g>
</svg>