<?xml version="1.0" encoding="UTF-8"?>
<svg id="_图层_2" data-name="图层 2" xmlns="http://www.w3.org/2000/svg" viewBox="0 0 128.87 57">
  <defs>
    <style>
      .cls-1 {
        fill: #40bde1;
      }

      .cls-1, .cls-2, .cls-3, .cls-4, .cls-5, .cls-6, .cls-7, .cls-8, .cls-9, .cls-10, .cls-11 {
        stroke-width: 0px;
      }

      .cls-2 {
        fill: #279dc8;
      }

      .cls-3 {
        fill: none;
      }

      .cls-4 {
        fill: #e51f83;
      }

      .cls-5 {
        fill: #84c147;
      }

      .cls-6 {
        fill: #ce445b;
      }

      .cls-7 {
        fill: #d93248;
      }

      .cls-8 {
        fill: #5877b9;
      }

      .cls-9 {
        fill: #5d7fba;
      }

      .cls-10 {
        fill: #e24893;
      }

      .cls-11 {
        fill: #36a3b6;
      }
    </style>
  </defs>
  <g id="_图层_1-2" data-name="图层 1">
    <g>
      <g>
        <path class="cls-5" d="M59.01,3.89s.04.1.06.15c-.02-.05-.04-.1-.06-.15Z"/>
        <path class="cls-5" d="M58.79,3.43c.05.08.09.17.13.25-.04-.09-.08-.17-.13-.25Z"/>
        <path class="cls-5" d="M59.2,4.43s0,0,0-.01c0,.01,0,.02,0,.03v-.02Z"/>
        <path class="cls-5" d="M58.53,3.01c.07.1.14.21.2.32-.06-.11-.13-.22-.2-.32Z"/>
        <path class="cls-5" d="M56.04,1.27c1.05.28,1.9.91,2.48,1.73-1.05-1.5-2.96-2.26-4.83-1.76h0c-1.71.46-2.91,1.83-3.24,3.45l.07-.27c.65-2.39,3.12-3.81,5.51-3.16Z"/>
        <path class="cls-5" d="M30.63.23c.07,0,.14,0,.21,0-.07,0-.14,0-.21,0Z"/>
        <path class="cls-5" d="M29.31.43c.09-.03.18-.05.27-.07-.09.02-.18.05-.27.07Z"/>
        <path class="cls-5" d="M30.18.25c.08,0,.16-.01.24-.02-.08,0-.16,0-.24.02Z"/>
        <path class="cls-5" d="M29.74.32c.09-.02.17-.03.26-.04-.09.01-.17.03-.26.04Z"/>
        <path class="cls-5" d="M31.08.25c.06,0,.12.01.18.02-.06,0-.12-.02-.18-.02Z"/>
        <path class="cls-5" d="M32.79.78s0,0,.01,0c0,0,0,0-.01,0Z"/>
        <path class="cls-5" d="M31.52.32c.05.01.11.02.16.04-.05-.01-.11-.03-.16-.04Z"/>
        <path class="cls-5" d="M32.38.58s.06.03.09.04c-.03-.01-.06-.03-.09-.04Z"/>
        <path class="cls-5" d="M31.96.43s.09.03.14.05c-.05-.02-.09-.03-.14-.05Z"/>
        <path class="cls-5" d="M28.46.78c-.96.53-1.67,1.38-2.03,2.36l.03-.09c.4-1,1.12-1.78,2-2.27Z"/>
        <path class="cls-5" d="M28.97.54s-.06.03-.08.04c.09-.04.19-.07.29-.11-.07.02-.13.04-.2.07Z"/>
        <path class="cls-5" d="M28.47.78c.1-.06.21-.11.32-.16-.11.05-.22.1-.32.16Z"/>
        <path class="cls-4" d="M59.07,4.04c.04.12.09.24.12.37-.03-.13-.07-.25-.12-.37Z"/>
        <path class="cls-4" d="M58.92,3.68c.03.07.06.14.09.21-.03-.07-.06-.14-.09-.21Z"/>
        <path class="cls-4" d="M59.2,4.44l.04.16c-.01-.05-.03-.11-.04-.16Z"/>
        <path class="cls-4" d="M58.74,3.33s.04.06.05.09c-.02-.03-.03-.06-.05-.09Z"/>
        <path class="cls-4" d="M58.53,3s0,0,0,0c0,0,0,0,0,0Z"/>
        <path class="cls-4" d="M34.8,3.05l.03.09c-.37-.98-1.07-1.83-2.03-2.36.88.48,1.6,1.26,2,2.27Z"/>
        <path class="cls-4" d="M31.26.27c.09.01.17.03.26.04-.09-.02-.17-.03-.26-.04Z"/>
        <path class="cls-4" d="M32.47.62c.11.05.21.1.32.16-.1-.06-.21-.11-.32-.16Z"/>
        <path class="cls-4" d="M31.68.35c.09.02.18.05.27.07-.09-.03-.18-.05-.27-.07Z"/>
        <path class="cls-4" d="M32.29.54h0c-.07-.03-.13-.05-.2-.07.1.03.19.07.29.11-.03-.01-.06-.03-.08-.04Z"/>
        <path class="cls-4" d="M30,.27c.06,0,.12-.02.18-.02-.06,0-.12.01-.18.02Z"/>
        <path class="cls-4" d="M29.17.47s.09-.03.14-.05c-.05.01-.09.03-.14.05Z"/>
        <path class="cls-4" d="M28.79.62s.06-.03.09-.04c-.03.01-.06.03-.09.04Z"/>
        <path class="cls-4" d="M29.58.35c.05-.01.11-.03.16-.04-.05.01-.11.02-.16.04Z"/>
        <path class="cls-4" d="M28.46.78s0,0,.01,0c0,0,0,0-.01,0Z"/>
        <path class="cls-4" d="M30.84.23c.08,0,.16,0,.24.02-.08,0-.16-.01-.24-.02Z"/>
        <path class="cls-4" d="M30.42.23c.07,0,.14,0,.21,0-.07,0-.14,0-.21,0Z"/>
        <path class="cls-5" d="M75.29,1.2h0c1.05.28,1.9.91,2.48,1.73-1.05-1.5-2.96-2.26-4.83-1.76h0c-1.71.46-2.91,1.83-3.24,3.45l.07-.27c.65-2.39,3.12-3.81,5.51-3.16Z"/>
        <path class="cls-5" d="M77.79,2.95c.07.1.14.21.2.32-.06-.11-.13-.22-.2-.32Z"/>
        <path class="cls-5" d="M78.26,3.83s.04.1.06.15c-.02-.05-.04-.1-.06-.15Z"/>
        <path class="cls-5" d="M78.45,4.36s0,0,0-.01c0,.01,0,.02,0,.03v-.02Z"/>
        <path class="cls-5" d="M78.04,3.36c.05.08.09.17.13.25-.04-.09-.08-.17-.13-.25Z"/>
        <path class="cls-4" d="M78.32,3.97c.04.12.09.24.12.37-.03-.13-.07-.25-.12-.37Z"/>
        <path class="cls-4" d="M78.17,3.61c.03.07.06.14.09.21-.03-.07-.06-.14-.09-.21Z"/>
        <path class="cls-4" d="M78.45,4.38l.04.16c-.01-.05-.03-.11-.04-.16Z"/>
        <path class="cls-4" d="M77.99,3.27s.04.06.05.09c-.02-.03-.03-.06-.05-.09Z"/>
        <path class="cls-4" d="M77.78,2.94s0,0,0,0c0,0,0,0,0,0Z"/>
        <path class="cls-5" d="M97.32.09c.09-.02.17-.03.26-.04-.09.01-.17.03-.26.04Z"/>
        <path class="cls-5" d="M98.21,0c.07,0,.14,0,.21,0-.07,0-.14,0-.21,0Z"/>
        <path class="cls-5" d="M97.76.02c.08,0,.16-.01.24-.02-.08,0-.16,0-.24.02Z"/>
        <path class="cls-5" d="M99.96.35s.06.03.09.04c-.03-.01-.06-.03-.09-.04Z"/>
        <path class="cls-5" d="M98.66.02c.06,0,.12.01.18.02-.06,0-.12-.02-.18-.02Z"/>
        <path class="cls-5" d="M99.53.2s.09.03.14.05c-.05-.02-.09-.03-.14-.05Z"/>
        <path class="cls-5" d="M96.04.56c-.96.53-1.67,1.38-2.03,2.36l.03-.09c.4-1,1.12-1.78,2-2.27Z"/>
        <path class="cls-5" d="M100.37.55s0,0,.01,0c0,0,0,0-.01,0Z"/>
        <path class="cls-5" d="M99.1.09c.05.01.11.02.16.04-.05-.01-.11-.03-.16-.04Z"/>
        <path class="cls-5" d="M96.55.32h0s-.06.03-.08.04c.09-.04.19-.07.29-.11-.07.02-.13.04-.2.07Z"/>
        <path class="cls-5" d="M96.05.55c.1-.06.21-.11.32-.16-.11.05-.22.1-.32.16Z"/>
        <path class="cls-5" d="M96.89.2c.09-.03.18-.05.27-.07-.09.02-.18.05-.27.07Z"/>
        <path class="cls-4" d="M96.37.4s.06-.03.09-.04c-.03.01-.06.03-.09.04Z"/>
        <path class="cls-4" d="M96.04.56s0,0,.01,0c0,0,0,0-.01,0Z"/>
        <path class="cls-4" d="M99.87.32h0c-.07-.03-.13-.05-.2-.07.1.03.19.07.29.11-.03-.01-.06-.03-.08-.04Z"/>
        <path class="cls-4" d="M98.42,0c.08,0,.16,0,.24.02-.08,0-.16-.01-.24-.02Z"/>
        <path class="cls-4" d="M98.84.05c.09.01.17.03.26.04-.09-.02-.17-.03-.26-.04Z"/>
        <path class="cls-4" d="M102.38,2.83l.03.09c-.37-.98-1.07-1.83-2.03-2.36.88.48,1.6,1.26,2,2.27Z"/>
        <path class="cls-4" d="M98,0c.07,0,.14,0,.21,0-.07,0-.14,0-.21,0Z"/>
        <path class="cls-4" d="M99.26.13c.09.02.18.05.27.07-.09-.03-.18-.05-.27-.07Z"/>
        <path class="cls-4" d="M97.16.13c.05-.01.11-.03.16-.04-.05.01-.11.02-.16.04Z"/>
        <path class="cls-4" d="M100.05.4c.11.05.21.1.32.16-.1-.06-.21-.11-.32-.16Z"/>
        <path class="cls-4" d="M96.75.25s.09-.03.14-.05c-.05.01-.09.03-.14.05Z"/>
        <path class="cls-4" d="M97.58.05c.06,0,.12-.02.18-.02-.06,0-.12.01-.18.02Z"/>
        <path class="cls-11" d="M26.46,6.37l4.17,10.49,4.17-10.49c.43-1.08.41-2.22.03-3.23l-.03-.09c-.4-1-1.12-1.78-2-2.27,0,0,0,0-.01,0-.1-.06-.21-.11-.32-.16-.03-.01-.06-.03-.09-.04-.09-.04-.19-.07-.29-.11-.05-.02-.09-.03-.14-.05-.09-.03-.18-.05-.27-.07-.05-.01-.11-.03-.16-.04-.09-.02-.17-.03-.26-.04-.06,0-.12-.02-.18-.02-.08,0-.16-.01-.24-.02-.07,0-.14,0-.21,0-.07,0-.14,0-.21,0-.08,0-.16,0-.24.02-.06,0-.12.01-.18.02-.09.01-.17.03-.26.04-.05.01-.11.02-.16.04-.09.02-.18.05-.27.07-.05.01-.09.03-.14.05-.1.03-.19.07-.29.11-.03.01-.06.03-.09.04-.11.05-.21.1-.32.16,0,0,0,0-.01,0-.88.48-1.6,1.26-2,2.27l-.03.09c-.38,1.01-.4,2.15.03,3.23Z"/>
        <path class="cls-11" d="M94.04,6.15l4.17,10.49,4.17-10.49c.43-1.08.41-2.22.03-3.23l-.03-.09c-.4-1-1.12-1.78-2-2.27,0,0,0,0-.01,0-.1-.06-.21-.11-.32-.16-.03-.01-.06-.03-.09-.04-.09-.04-.19-.07-.29-.11-.05-.02-.09-.03-.14-.05-.09-.03-.18-.05-.27-.07-.05-.01-.11-.03-.16-.04-.09-.02-.17-.03-.26-.04-.06,0-.12-.02-.18-.02-.08,0-.16-.01-.24-.02-.07,0-.14,0-.21,0-.07,0-.14,0-.21,0-.08,0-.16,0-.24.02-.06,0-.12.01-.18.02-.09.01-.17.03-.26.04-.05.01-.11.02-.16.04-.09.02-.18.05-.27.07-.05.01-.09.03-.14.05-.1.03-.19.07-.29.11-.03.01-.06.03-.09.04-.11.05-.21.1-.32.16,0,0,0,0-.01,0-.88.48-1.6,1.26-2,2.27l-.03.09c-.38,1.01-.4,2.15.03,3.23Z"/>
        <g>
          <path class="cls-1" d="M81.99,45.25h0c-2.3-.92-3.43-3.53-2.51-5.83l4.98-12.51-5.97-22.36c.16.69.16,1.44-.04,2.17l-4.37,16.11,5.24,19.62c.64,2.4,3.1,3.82,5.49,3.18h0c1.71-.46,2.92-1.84,3.24-3.46l-.23.58c-.92,2.3-3.53,3.43-5.83,2.51Z"/>
          <polygon class="cls-3" points="33.67 24.5 30.63 16.86 27.59 24.5 33.67 24.5"/>
          <path class="cls-10" d="M63.25,45.6c-2.39-.65-3.81-3.12-3.16-5.51l4.35-16.02-5.19-19.46c.16.69.16,1.44-.04,2.17l-4.37,16.11,5.24,19.62c.64,2.4,3.1,3.82,5.49,3.18h0c1.66-.44,2.85-1.76,3.22-3.33l-.02.08c-.65,2.39-3.12,3.81-5.51,3.16Z"/>
          <path class="cls-5" d="M40.84,40.16l3.54-13.03L34.83,3.14c.38,1.01.4,2.15-.03,3.23l-4.17,10.49,3.04,7.64h3.01c2.2,0,3.99,1.79,3.99,3.99s-1.7,3.9-3.83,3.98l4.03,10.12c-.23-.77-.25-1.61-.03-2.44Z"/>
          <path class="cls-1" d="M50.46,4.7l-6.08,22.42,5.01,12.6c.28.7.37,1.43.29,2.13l5.15-18.97-4.31-16.14c-.18-.69-.19-1.38-.06-2.04Z"/>
          <path class="cls-9" d="M59.24,4.61l-.04-.16s0-.02,0-.03c-.03-.13-.08-.25-.12-.37-.02-.05-.04-.1-.06-.15-.03-.07-.06-.14-.09-.21-.04-.08-.08-.17-.13-.25-.02-.03-.03-.06-.05-.09-.06-.11-.13-.22-.2-.32,0,0,0,0,0,0-.58-.82-1.44-1.45-2.48-1.73-2.39-.65-4.86.76-5.51,3.16l-.07.27c-.13.66-.12,1.35.06,2.04l4.31,16.14,4.37-16.11c.2-.74.2-1.48.04-2.17Z"/>
          <path class="cls-11" d="M49.39,39.72l-5.01-12.6-3.54,13.03c-.23.83-.2,1.67.03,2.44l.18.45c.17.42.39.81.66,1.14,0,.01.02.02.03.03.04.05.08.09.12.14.56.61,1.28,1.07,2.13,1.3,2.39.65,4.86-.76,5.51-3.16l.18-.66c.07-.7-.01-1.43-.29-2.13Z"/>
          <path class="cls-1" d="M20.03,28.49c0-2.2,1.79-3.99,3.99-3.99h3.57l3.04-7.64-4.17-10.49c-.43-1.08-.41-2.22-.03-3.23l-14.52,36.5c-.92,2.3.21,4.91,2.51,5.83h0c2.3.92,4.91-.21,5.83-2.51l4.17-10.48h-.4c-2.2,0-3.99-1.79-3.99-3.99Z"/>
          <path class="cls-11" d="M87.99,40.13l-3.53-13.23-4.98,12.51c-.92,2.3.21,4.91,2.51,5.83h0c2.3.92,4.91-.21,5.83-2.51l.23-.58c.13-.65.12-1.34-.06-2.03Z"/>
          <path class="cls-5" d="M69.71,4.63l-5.27,19.44,4.3,16.12c.2.74.2,1.48.04,2.17l5.3-19.54-4.31-16.14c-.18-.69-.19-1.38-.06-2.04Z"/>
          <path class="cls-6" d="M68.74,40.19l-4.3-16.12-4.35,16.02c-.65,2.39.76,4.86,3.16,5.51,2.39.65,4.86-.76,5.51-3.16l.02-.08c.16-.69.16-1.43-.04-2.17Z"/>
          <path class="cls-11" d="M78.49,4.54l-.04-.16s0-.02,0-.03c-.03-.13-.08-.25-.12-.37-.02-.05-.04-.1-.06-.15-.03-.07-.06-.14-.09-.21-.04-.09-.08-.17-.13-.25-.02-.03-.03-.06-.05-.09-.06-.11-.13-.22-.2-.32,0,0,0,0,0,0-.58-.82-1.44-1.45-2.48-1.73h0c-2.39-.65-4.86.76-5.51,3.16l-.07.27c-.13.66-.12,1.35.06,2.04l4.31,16.14,4.37-16.11c.2-.74.2-1.48.04-2.17Z"/>
          <path class="cls-10" d="M27.59,24.5l-3.18,7.98h12.26c.06,0,.11,0,.16,0l-3.17-7.97h-6.08Z"/>
          <path class="cls-7" d="M40.67,28.49c0-2.2-1.79-3.99-3.99-3.99h-3.01l3.17,7.97c2.13-.09,3.83-1.83,3.83-3.98Z"/>
          <path class="cls-8" d="M24.02,24.5c-2.2,0-3.99,1.79-3.99,3.99s1.79,3.99,3.99,3.99h.4l3.18-7.98h-3.57Z"/>
          <polygon class="cls-3" points="101.22 24.19 98.21 16.64 95.2 24.19 101.22 24.19"/>
          <path class="cls-1" d="M116.97,39.5L102.41,2.91c.38,1.01.4,2.15-.03,3.23l-4.17,10.49,3.01,7.55h3.06c2.2,0,3.99,1.79,3.99,3.99h0c0,2.16-1.72,3.92-3.87,3.98l4.24,10.65c.92,2.3,3.53,3.43,5.83,2.51,2.3-.92,3.43-3.53,2.51-5.83Z"/>
          <path class="cls-5" d="M88.53,28.18h0c0-2.2,1.79-3.99,3.99-3.99h2.68l3.01-7.55-4.17-10.49c-.43-1.08-.41-2.22-.03-3.23l-9.55,23.99,3.53,13.23c.18.69.19,1.38.06,2.03l3.99-10.02c-1.98-.24-3.51-1.92-3.51-3.96Z"/>
          <path class="cls-10" d="M95.2,24.19l-3.16,7.95c.16.02.32.03.48.03h11.75s.08,0,.12,0l-3.17-7.97h-6.01Z"/>
          <path class="cls-7" d="M108.26,28.18h0c0-2.2-1.79-3.99-3.99-3.99h-3.06l3.17,7.97c2.15-.06,3.87-1.82,3.87-3.98Z"/>
          <path class="cls-8" d="M92.52,24.19c-2.2,0-3.99,1.79-3.99,3.99h0c0,2.04,1.53,3.72,3.51,3.96l3.16-7.95h-2.68Z"/>
        </g>
      </g>
      <g>
        <g>
          <path class="cls-2" d="M2.15,54.91l-.52,1.31c-.07.18-.17.33-.3.44-.13.11-.31.17-.56.17s-.44-.06-.59-.19c-.15-.13-.16-.35-.05-.66l2.44-6.85c.04-.12.12-.23.25-.32s.31-.14.53-.14.4.05.53.14c.13.09.22.2.26.32l2.47,6.87c.09.29.07.5-.08.63-.15.13-.34.2-.59.2-.25,0-.43-.04-.55-.15-.12-.11-.21-.24-.27-.39l-.57-1.37h-2.41ZM4.27,53.63l-.91-2.82-.91,2.82h1.83Z"/>
          <path class="cls-2" d="M5.9,56.89c-.24,0-.42-.06-.54-.17-.13-.12-.22-.26-.29-.41l-.55-1.33h-2.33l-.51,1.27c-.07.19-.18.35-.31.46-.14.12-.34.18-.6.18s-.47-.07-.63-.21c-.17-.15-.19-.39-.07-.73l2.44-6.85c.04-.13.14-.25.28-.35.14-.1.33-.15.56-.15s.42.05.56.15c.14.1.23.22.28.35l2.47,6.87c.1.31.07.55-.09.7-.16.14-.37.21-.63.21-.02,0-.03,0-.05,0ZM2.11,54.85h2.49l.58,1.4c.06.14.15.27.26.37.11.1.28.14.5.14.23,0,.41-.06.55-.18.13-.12.15-.3.06-.57l-2.47-6.87c-.04-.11-.11-.21-.23-.3-.12-.09-.29-.13-.49-.13s-.37.04-.49.13c-.12.09-.2.19-.23.29L.19,55.99c-.1.28-.09.48.04.6.13.12.32.18.55.18s.4-.05.52-.15c.12-.1.21-.24.28-.41l.54-1.35ZM4.35,53.69h-1.99l1-3.08,1,3.08ZM2.53,53.57h1.66l-.83-2.57-.83,2.57Z"/>
        </g>
        <g>
          <path class="cls-5" d="M7.89,53.73c0-.43.07-.85.2-1.24.13-.39.32-.74.58-1.04s.58-.54.96-.72c.38-.18.83-.27,1.33-.27.4,0,.77.07,1.11.21s.59.29.77.46c.06.06.12.14.18.23.06.09.1.19.13.3.03.11.04.21.02.32-.01.11-.06.21-.14.3-.03.04-.08.08-.14.13-.06.05-.14.08-.23.1-.09.02-.18.02-.27,0-.09-.02-.19-.08-.28-.19-.16-.18-.32-.32-.49-.42-.17-.1-.38-.15-.63-.15-.24,0-.45.05-.65.15-.2.1-.37.24-.5.41-.14.17-.25.39-.33.64-.08.25-.12.53-.12.83,0,.32.05.6.14.84.09.24.21.44.36.6.15.16.32.29.51.37.19.08.38.13.58.13.15,0,.27,0,.37-.02.1-.02.18-.04.24-.07.06-.03.12-.06.17-.1.05-.03.09-.07.14-.11.07-.05.15-.11.23-.17.08-.06.16-.1.25-.13.09-.03.18-.03.28-.02.1.02.21.06.33.14.17.11.28.23.31.36.03.13-.01.29-.13.48-.16.27-.42.48-.79.64s-.83.24-1.38.24c-.5,0-.94-.08-1.33-.23-.39-.15-.71-.37-.98-.65-.26-.28-.46-.62-.6-1.01-.13-.4-.2-.84-.2-1.32Z"/>
          <path class="cls-5" d="M10.99,57c-.5,0-.96-.08-1.35-.23-.39-.15-.73-.38-1-.66-.27-.29-.48-.63-.61-1.04-.14-.4-.2-.85-.2-1.34,0-.44.07-.86.2-1.26.13-.4.33-.76.59-1.06.26-.31.59-.55.98-.74.39-.19.85-.28,1.36-.28.41,0,.79.07,1.13.21.34.14.6.3.78.47.07.07.13.15.19.24.06.1.11.2.14.31.03.11.04.23.03.34-.01.12-.06.23-.15.33-.03.04-.09.09-.15.13-.07.05-.15.09-.25.11-.1.02-.19.02-.3,0-.11-.02-.21-.09-.32-.21-.15-.18-.31-.31-.48-.41-.16-.09-.36-.14-.6-.14-.23,0-.44.05-.63.14-.19.09-.35.23-.48.39-.13.17-.24.38-.32.62-.08.24-.12.52-.12.81s.04.58.13.82c.09.23.21.43.35.58.14.16.31.28.49.36.18.08.37.12.56.12.15,0,.27,0,.36-.02.09-.01.17-.04.23-.06.06-.03.11-.06.16-.09.05-.03.09-.07.14-.11.07-.05.15-.11.23-.17.08-.06.17-.1.27-.13.1-.03.2-.04.31-.02.11.02.23.07.36.15.19.12.3.26.33.39.04.14,0,.32-.14.53-.16.28-.44.5-.82.67-.38.17-.85.25-1.4.25ZM10.96,50.51c-.49,0-.94.09-1.31.27-.37.18-.69.42-.94.71-.25.29-.44.64-.57,1.02-.13.39-.19.8-.19,1.22,0,.48.07.92.2,1.3.13.39.33.72.59.99.26.27.58.49.96.63.38.15.82.22,1.31.22.53,0,.99-.08,1.35-.24.36-.16.62-.37.77-.62.11-.18.15-.33.12-.44-.03-.11-.12-.22-.28-.32-.11-.07-.21-.11-.31-.13-.09-.01-.18,0-.26.02-.08.03-.16.06-.23.12-.08.06-.15.11-.22.16-.05.04-.09.07-.14.11-.05.04-.11.07-.18.1-.07.03-.15.06-.26.07-.1.02-.23.02-.38.02-.2,0-.41-.04-.61-.13-.2-.09-.38-.22-.53-.38-.15-.17-.28-.38-.37-.62-.09-.24-.14-.53-.14-.86s.04-.59.12-.85c.08-.26.19-.48.34-.66.14-.18.32-.32.52-.43.21-.1.43-.15.68-.15.26,0,.49.05.66.16.18.1.35.25.51.43.08.1.17.15.25.17.09.02.17.02.25,0,.08-.02.15-.05.2-.09.06-.04.1-.08.13-.12.07-.08.11-.17.12-.26.01-.1,0-.2-.02-.3-.03-.1-.07-.19-.12-.28-.06-.09-.11-.16-.18-.22-.17-.16-.42-.31-.75-.44-.33-.13-.69-.2-1.09-.2Z"/>
        </g>
        <g>
          <path class="cls-5" d="M14.4,53.73c0-.43.07-.85.2-1.24.13-.39.32-.74.58-1.04s.58-.54.96-.72c.38-.18.83-.27,1.33-.27.4,0,.77.07,1.11.21s.59.29.77.46c.06.06.12.14.18.23.06.09.1.19.13.3.03.11.04.21.02.32-.01.11-.06.21-.14.3-.03.04-.08.08-.14.13-.06.05-.14.08-.23.1-.09.02-.18.02-.27,0-.09-.02-.19-.08-.28-.19-.16-.18-.32-.32-.49-.42-.17-.1-.38-.15-.63-.15-.24,0-.45.05-.65.15-.2.1-.37.24-.5.41-.14.17-.25.39-.33.64-.08.25-.12.53-.12.83,0,.32.05.6.14.84.09.24.21.44.36.6.15.16.32.29.51.37.19.08.38.13.58.13.15,0,.27,0,.37-.02.1-.02.18-.04.24-.07.06-.03.12-.06.17-.1.05-.03.09-.07.14-.11.07-.05.15-.11.23-.17.08-.06.16-.1.25-.13.09-.03.18-.03.28-.02.1.02.21.06.33.14.17.11.28.23.31.36.03.13-.01.29-.13.48-.16.27-.42.48-.79.64s-.83.24-1.38.24c-.5,0-.94-.08-1.33-.23-.39-.15-.71-.37-.98-.65-.26-.28-.46-.62-.6-1.01-.13-.4-.2-.84-.2-1.32Z"/>
          <path class="cls-5" d="M17.5,57c-.5,0-.96-.08-1.35-.23-.39-.15-.73-.38-1-.66-.27-.29-.48-.63-.61-1.04-.14-.4-.2-.85-.2-1.34,0-.44.07-.86.2-1.26.13-.4.33-.76.59-1.06.26-.31.59-.55.98-.74.39-.19.85-.28,1.36-.28.41,0,.79.07,1.13.21.34.14.6.3.78.47.07.07.13.15.19.24.06.1.11.2.14.31.03.11.04.23.03.34-.01.12-.06.23-.15.33-.04.04-.09.09-.15.13-.07.05-.15.09-.25.11-.09.02-.19.02-.3,0-.11-.02-.21-.09-.32-.21-.15-.18-.31-.31-.48-.41-.16-.09-.36-.14-.6-.14-.23,0-.44.05-.63.14-.19.09-.35.23-.48.39-.13.17-.24.38-.32.62-.08.24-.12.52-.12.81s.04.58.13.82c.09.23.21.43.35.58.14.16.31.28.49.36.18.08.37.12.56.12.15,0,.27,0,.36-.02.09-.01.17-.04.23-.06.06-.03.11-.06.16-.09.05-.03.09-.07.14-.11.07-.05.15-.11.23-.17.08-.06.17-.1.27-.13.1-.03.2-.04.31-.02.11.02.23.07.36.15.19.12.3.26.33.39.04.14,0,.32-.14.53-.16.28-.44.5-.82.67-.38.17-.85.25-1.4.25ZM17.47,50.51c-.49,0-.94.09-1.31.27-.37.18-.69.42-.94.71-.25.29-.44.64-.57,1.02-.13.39-.19.8-.19,1.22,0,.48.07.92.2,1.3.13.39.33.72.59.99.26.27.58.49.96.63.38.15.82.22,1.31.22.53,0,.99-.08,1.35-.24.36-.16.62-.37.77-.62.11-.18.15-.33.12-.44-.03-.11-.12-.22-.28-.32-.11-.07-.21-.11-.31-.13-.09-.01-.18,0-.26.02-.08.03-.16.06-.23.12-.08.06-.15.11-.22.16-.05.04-.09.07-.14.11-.05.04-.11.07-.18.1-.07.03-.15.06-.26.07-.1.02-.23.02-.38.02-.2,0-.41-.04-.61-.13-.2-.09-.38-.22-.53-.38-.15-.17-.28-.38-.37-.62-.09-.24-.14-.53-.14-.86s.04-.59.12-.85c.08-.26.19-.48.34-.66.14-.18.32-.32.52-.43.21-.1.43-.15.68-.15.26,0,.49.05.66.16.18.1.35.25.51.43.08.1.17.15.25.17.09.02.17.02.25,0,.08-.02.15-.05.2-.09.06-.04.1-.08.13-.12.07-.08.11-.17.12-.26.01-.1,0-.2-.02-.3-.03-.1-.07-.19-.12-.28-.05-.08-.11-.16-.18-.22-.17-.16-.42-.31-.75-.44-.33-.13-.69-.2-1.09-.2Z"/>
        </g>
        <g>
          <path class="cls-5" d="M23.77,56.94c-.48,0-.9-.08-1.26-.23s-.65-.37-.89-.64-.42-.61-.53-1.01c-.12-.39-.18-.84-.18-1.32s.06-.91.18-1.31c.12-.4.3-.75.54-1.04.24-.29.54-.52.9-.69.36-.17.77-.25,1.25-.25s.83.08,1.15.23c.32.15.58.36.78.62.2.26.35.56.44.9.09.34.14.7.14,1.08,0,.32-.04.56-.13.73-.09.17-.25.25-.49.25h-3.26c0,.17.02.35.06.51s.11.32.22.46c.11.14.25.25.43.33s.4.13.68.13c.36,0,.63-.05.84-.15.2-.1.36-.22.48-.35.09-.1.17-.16.26-.18.09-.02.17-.02.24,0,.07.02.14.05.2.09.06.04.11.07.15.09.15.11.21.27.18.47-.03.2-.14.4-.34.59-.19.19-.46.36-.81.5s-.75.21-1.23.21ZM24.82,53.17c0-.19-.02-.37-.05-.55-.03-.18-.09-.33-.17-.47-.08-.13-.19-.24-.33-.32-.14-.08-.32-.12-.54-.12-.28,0-.51.05-.69.14-.17.09-.31.22-.4.36s-.16.31-.19.48c-.03.17-.05.33-.05.47h2.42Z"/>
          <path class="cls-5" d="M23.77,57c-.49,0-.92-.08-1.28-.23-.36-.15-.67-.38-.91-.66-.24-.28-.43-.63-.55-1.03-.12-.4-.18-.85-.18-1.34s.06-.92.18-1.33c.12-.41.31-.77.55-1.06.25-.3.55-.54.92-.7.36-.17.79-.26,1.27-.26s.85.08,1.18.23c.32.16.59.37.8.63.21.26.36.57.46.92.1.35.14.72.14,1.1,0,.33-.05.58-.14.76-.1.19-.28.28-.54.28h-3.2c0,.15.02.3.06.44.04.16.11.3.21.43.1.13.24.23.41.31.17.08.39.12.66.12.34,0,.62-.05.81-.15.19-.1.35-.21.46-.33.1-.11.19-.17.29-.2.1-.03.19-.03.27,0,.08.02.15.05.22.09.06.04.11.07.15.09.17.13.24.31.21.53-.03.21-.15.42-.35.63-.2.2-.48.37-.83.51-.35.14-.77.22-1.25.22ZM23.77,50.51c-.46,0-.87.08-1.22.25-.35.16-.64.39-.87.67-.23.28-.41.63-.53,1.02-.12.4-.18.83-.18,1.29s.06.92.18,1.3c.12.38.29.72.52.99.23.27.52.48.87.63.35.15.76.22,1.23.22s.87-.07,1.2-.21c.33-.14.6-.3.79-.49.18-.18.29-.37.32-.56.03-.18-.02-.32-.16-.42-.03-.02-.08-.05-.14-.09-.05-.03-.12-.06-.18-.08-.06-.02-.14-.01-.21,0-.07.02-.15.07-.23.16-.12.13-.29.26-.5.36-.21.11-.5.16-.86.16-.28,0-.52-.04-.71-.13-.19-.09-.34-.2-.45-.35-.11-.14-.19-.3-.23-.48-.04-.17-.06-.35-.06-.53v-.06h3.32c.21,0,.36-.07.43-.22.08-.16.12-.39.12-.7,0-.37-.05-.73-.14-1.07-.09-.33-.24-.63-.43-.88-.19-.25-.45-.45-.76-.6-.31-.15-.68-.22-1.12-.22ZM24.88,53.23h-2.54v-.06c0-.15.02-.31.05-.48.03-.18.1-.35.2-.5.1-.16.24-.29.42-.38.18-.1.42-.15.72-.15.23,0,.42.04.57.13.15.08.27.2.35.34.09.14.15.3.18.49.03.18.05.37.05.56v.06ZM22.46,53.11h2.3c0-.16-.02-.33-.05-.48-.03-.17-.09-.32-.16-.45-.08-.12-.18-.22-.31-.3-.13-.07-.3-.11-.51-.11-.27,0-.5.05-.66.14-.16.09-.29.21-.38.34-.09.14-.15.29-.18.46-.03.14-.04.28-.05.4Z"/>
        </g>
        <g>
          <path class="cls-5" d="M30.08,55.62c.26,0,.48-.06.66-.17.18-.11.27-.27.27-.48,0-.09-.02-.17-.05-.24s-.1-.14-.2-.21c-.1-.06-.23-.13-.4-.19s-.39-.13-.66-.21c-.33-.09-.62-.19-.85-.28-.24-.1-.43-.22-.59-.35s-.27-.3-.34-.49c-.08-.19-.11-.42-.11-.68,0-.28.06-.53.18-.76.12-.22.28-.41.49-.57.21-.16.45-.27.73-.35s.57-.12.88-.12c.32,0,.62.03.9.1.27.07.51.16.7.26.19.11.35.22.46.34.11.12.17.23.17.33,0,.23-.04.44-.12.63-.08.19-.21.29-.38.29-.06,0-.11-.02-.17-.06-.06-.04-.13-.1-.24-.19-.18-.14-.36-.25-.55-.33-.18-.08-.43-.13-.76-.14-.21,0-.39.03-.56.11-.17.08-.25.22-.25.42,0,.09.02.17.06.23.04.06.11.12.21.17.1.05.24.1.4.15.16.05.37.11.62.18.27.08.52.16.76.26.24.1.44.22.62.36.17.14.31.32.41.53.1.21.15.46.15.76s-.07.58-.21.82c-.14.24-.33.45-.56.62-.23.17-.5.3-.79.39-.29.09-.59.14-.89.14-.36,0-.68-.05-.98-.14-.3-.09-.55-.2-.75-.32s-.37-.25-.48-.39c-.11-.13-.17-.24-.17-.34s0-.19.02-.29c.02-.1.04-.2.08-.28.04-.09.09-.16.15-.22.06-.06.14-.09.23-.09.08,0,.16.04.25.13.09.08.2.18.34.28.14.1.32.2.53.28.22.08.49.13.82.13Z"/>
          <path class="cls-5" d="M30.03,56.94c-.36,0-.69-.05-1-.14-.3-.09-.56-.2-.77-.33-.21-.13-.38-.26-.49-.4-.13-.14-.19-.27-.19-.37,0-.09,0-.2.02-.3.02-.11.05-.21.09-.3.04-.09.1-.17.16-.24.07-.07.16-.11.27-.11.09,0,.19.05.29.14.08.08.19.17.33.27.13.1.31.19.52.27.21.08.48.12.8.12.25,0,.46-.05.63-.16.16-.1.24-.24.24-.43,0-.08-.02-.15-.05-.22-.03-.06-.09-.12-.18-.18-.1-.06-.23-.13-.39-.19-.17-.06-.38-.13-.65-.21-.33-.09-.62-.19-.86-.29-.24-.1-.44-.22-.6-.36-.16-.14-.28-.32-.36-.51-.08-.19-.12-.43-.12-.7,0-.29.06-.55.19-.79.12-.23.29-.43.51-.59.21-.16.47-.28.75-.36.28-.08.58-.12.89-.12.33,0,.63.04.91.1.28.07.52.16.71.27.2.11.36.23.47.35.12.13.18.26.18.37,0,.23-.04.45-.12.65-.09.22-.24.33-.43.33-.07,0-.14-.03-.2-.08-.06-.04-.14-.1-.24-.19-.18-.13-.35-.24-.53-.32-.17-.08-.42-.12-.74-.13-.2,0-.38.03-.54.11-.15.07-.22.19-.22.37,0,.08.02.14.05.19.03.05.1.1.19.14.1.05.23.1.39.15.16.05.37.11.62.18.27.08.53.17.77.26.24.1.45.23.63.37.18.15.32.33.42.55.1.22.15.48.15.78s-.07.6-.22.85c-.15.25-.34.46-.58.63-.24.17-.51.3-.81.4-.3.09-.6.14-.91.14ZM28.13,54.87c-.08,0-.14.02-.19.07-.05.06-.1.12-.14.2-.04.08-.06.17-.08.27-.02.1-.02.19-.02.28,0,.05.03.15.16.3.11.13.27.25.47.38.2.12.45.23.74.32.29.09.61.13.96.13.29,0,.59-.05.87-.13.28-.09.54-.22.77-.38.23-.16.41-.36.55-.6.14-.23.21-.5.21-.79s-.05-.53-.14-.73c-.09-.2-.23-.37-.39-.51-.17-.14-.37-.26-.6-.36-.23-.1-.49-.18-.75-.26-.25-.07-.46-.13-.62-.18-.16-.05-.3-.11-.4-.16-.11-.05-.19-.12-.24-.19-.05-.07-.07-.16-.07-.26,0-.22.1-.38.29-.48.18-.09.38-.13.59-.12.33,0,.59.06.78.14.19.09.37.2.56.34.1.08.18.15.24.19.05.03.09.05.13.05.15,0,.25-.08.32-.25.08-.19.11-.39.11-.61,0-.08-.05-.18-.15-.29-.11-.12-.25-.23-.44-.33-.19-.1-.42-.19-.69-.26-.27-.07-.56-.1-.88-.1-.3,0-.59.04-.86.12-.27.08-.51.19-.71.34-.2.15-.36.33-.48.55-.11.21-.17.46-.17.73s.04.48.11.66c.07.18.18.34.33.47.15.13.34.25.57.34.23.1.52.19.85.28.28.08.49.15.66.21.17.07.31.13.41.2.11.07.18.15.22.23.04.08.06.17.06.27,0,.23-.1.4-.29.53-.19.12-.42.18-.69.18-.34,0-.62-.04-.85-.13-.22-.08-.41-.18-.55-.29-.15-.11-.26-.2-.34-.28-.08-.07-.15-.11-.21-.11Z"/>
        </g>
        <g>
          <path class="cls-5" d="M36.16,55.62c.26,0,.48-.06.66-.17.18-.11.27-.27.27-.48,0-.09-.02-.17-.05-.24s-.1-.14-.2-.21c-.1-.06-.23-.13-.4-.19s-.39-.13-.66-.21c-.33-.09-.62-.19-.85-.28-.24-.1-.43-.22-.59-.35s-.27-.3-.34-.49c-.08-.19-.11-.42-.11-.68,0-.28.06-.53.18-.76.12-.22.28-.41.49-.57.21-.16.45-.27.73-.35s.57-.12.88-.12c.32,0,.62.03.9.1.27.07.51.16.7.26.19.11.35.22.46.34.11.12.17.23.17.33,0,.23-.04.44-.12.63-.08.19-.21.29-.38.29-.06,0-.11-.02-.17-.06-.06-.04-.13-.1-.24-.19-.18-.14-.36-.25-.55-.33-.18-.08-.43-.13-.76-.14-.21,0-.39.03-.56.11-.17.08-.25.22-.25.42,0,.09.02.17.06.23.04.06.11.12.21.17.1.05.24.1.4.15.16.05.37.11.62.18.27.08.52.16.76.26.24.1.44.22.62.36.17.14.31.32.41.53.1.21.15.46.15.76s-.07.58-.21.82c-.14.24-.33.45-.56.62-.23.17-.5.3-.79.39-.29.09-.59.14-.89.14-.36,0-.68-.05-.98-.14-.3-.09-.55-.2-.75-.32s-.37-.25-.48-.39c-.11-.13-.17-.24-.17-.34s0-.19.02-.29c.02-.1.04-.2.08-.28.04-.09.09-.16.15-.22.06-.06.14-.09.23-.09.08,0,.16.04.25.13.09.08.2.18.34.28.14.1.32.2.53.28.22.08.49.13.82.13Z"/>
          <path class="cls-5" d="M36.11,56.94c-.36,0-.69-.05-1-.14-.3-.09-.56-.2-.77-.33-.21-.13-.38-.26-.49-.4-.13-.14-.19-.27-.19-.37,0-.09,0-.19.02-.3.02-.11.05-.21.09-.3.04-.09.1-.17.16-.24.07-.07.16-.11.27-.11.09,0,.19.05.29.14.08.08.19.17.33.27.13.1.31.19.52.27.21.08.48.12.8.12.25,0,.46-.05.63-.16.16-.1.24-.24.24-.43,0-.08-.02-.15-.05-.22-.03-.06-.09-.12-.18-.18-.1-.06-.23-.13-.39-.19-.17-.06-.38-.13-.65-.21-.33-.09-.62-.19-.86-.29-.24-.1-.44-.22-.6-.36-.16-.14-.28-.32-.36-.51-.08-.19-.12-.43-.12-.7,0-.29.06-.55.18-.79.12-.23.29-.43.51-.59.21-.16.47-.28.75-.36.28-.08.58-.12.89-.12.33,0,.63.04.91.1.28.07.52.16.71.27.2.11.36.23.47.35.12.13.18.26.18.37,0,.23-.04.45-.12.65-.09.22-.24.33-.44.33-.07,0-.14-.03-.2-.08-.06-.04-.14-.1-.24-.19-.18-.13-.36-.24-.53-.32-.17-.08-.42-.12-.74-.13-.19,0-.38.03-.54.11-.15.07-.22.19-.22.37,0,.08.02.14.05.19.03.05.1.1.19.14.1.05.23.1.39.15.16.05.37.11.62.18.27.08.53.17.77.26.24.1.45.23.63.37.18.15.32.33.42.55.1.22.15.48.15.78s-.07.6-.22.85c-.15.25-.34.46-.58.63-.24.17-.51.3-.81.4-.3.09-.6.14-.91.14ZM34.21,54.87c-.08,0-.14.02-.19.07-.05.06-.1.12-.14.2-.04.08-.06.17-.08.27-.02.1-.02.19-.02.28,0,.05.03.15.16.3.11.13.27.25.47.38.2.12.45.23.74.32.29.09.61.13.96.13.29,0,.59-.05.87-.13.28-.09.54-.22.77-.38.23-.16.41-.36.55-.6.14-.23.21-.5.21-.79s-.05-.53-.14-.73c-.09-.2-.23-.37-.39-.51-.17-.14-.37-.26-.6-.36-.23-.1-.49-.18-.75-.26-.25-.07-.46-.13-.62-.18-.16-.05-.3-.11-.4-.16-.11-.05-.19-.12-.24-.19-.05-.07-.07-.16-.07-.26,0-.22.1-.38.29-.48.18-.09.38-.13.59-.12.33,0,.59.06.78.14.18.08.37.2.56.34.1.08.18.15.24.19.04.03.09.05.13.05.15,0,.25-.08.32-.25.08-.19.11-.39.11-.61,0-.08-.05-.18-.15-.29-.11-.12-.25-.23-.44-.33-.19-.1-.42-.19-.69-.26-.27-.07-.56-.1-.88-.1-.3,0-.59.04-.86.12-.27.08-.51.19-.71.34-.2.15-.36.33-.48.55-.11.21-.17.46-.17.73s.04.48.11.66c.07.18.18.34.33.47.15.13.34.25.57.34.23.1.52.19.85.28.28.08.49.15.66.21.17.07.31.13.41.2.11.07.18.15.22.23.04.08.06.17.06.27,0,.23-.1.4-.29.53-.19.12-.42.18-.69.18-.34,0-.62-.04-.85-.13-.22-.08-.41-.18-.55-.29-.14-.11-.26-.2-.34-.28-.08-.07-.15-.11-.21-.11Z"/>
        </g>
        <g>
          <path class="cls-10" d="M52.3,55.95c.02.11.02.22.02.33,0,.11-.03.2-.08.28s-.12.14-.23.19c-.1.05-.25.07-.43.07-.25,0-.42-.05-.52-.17-.09-.12-.16-.31-.2-.57l-.57-4.11c-.03-.17-.08-.26-.14-.26s-.12.09-.18.26l-1.33,4.37c-.04.14-.1.26-.2.35-.09.09-.26.13-.52.13-.13,0-.25,0-.33-.03-.09-.02-.16-.05-.21-.09-.06-.04-.1-.09-.12-.15-.03-.06-.05-.13-.08-.21-.23-.74-.46-1.46-.68-2.18-.23-.72-.45-1.44-.67-2.18-.06-.18-.11-.27-.17-.27s-.1.09-.14.27l-.56,4.03c-.04.27-.12.48-.23.61-.11.13-.32.2-.62.2-.25,0-.41-.07-.51-.2s-.11-.36-.06-.68l1.02-6.46c.04-.27.14-.47.31-.62.17-.14.38-.22.63-.22s.47.06.64.18c.17.12.32.36.43.73l1.35,4.76,1.32-4.78c.1-.36.24-.59.42-.71.18-.12.39-.18.62-.18s.44.07.62.22.3.36.35.64l1.02,6.42Z"/>
          <path class="cls-10" d="M51.54,56.89c-.25,0-.42-.06-.52-.19-.1-.13-.17-.32-.21-.6l-.57-4.11c-.04-.2-.08-.21-.08-.21s-.05,0-.12.22l-1.33,4.37c-.04.15-.11.28-.21.37-.1.1-.29.15-.56.15-.14,0-.25-.01-.34-.03-.09-.02-.17-.05-.24-.1-.06-.05-.11-.11-.14-.17-.03-.06-.06-.13-.08-.22-.23-.73-.46-1.46-.68-2.18-.23-.74-.46-1.48-.67-2.18-.07-.22-.11-.23-.11-.23,0,0-.04.02-.08.22l-.56,4.03c-.04.28-.12.5-.25.64-.13.15-.35.22-.67.22-.26,0-.45-.08-.56-.22-.11-.15-.13-.38-.07-.72l1.02-6.46c.04-.28.15-.5.33-.65.18-.15.41-.23.67-.23s.49.06.67.19c.19.13.33.38.45.76l1.29,4.56,1.26-4.58c.11-.37.26-.62.45-.75.19-.12.41-.19.66-.19s.46.08.66.24c.2.16.32.39.37.68l1.02,6.43c.02.12.02.23.02.34,0,.12-.03.22-.09.31-.05.09-.14.16-.25.22-.11.05-.26.08-.45.08-.02,0-.03,0-.05,0ZM50.17,51.65c.13,0,.18.18.2.31l.57,4.11c.04.25.1.44.18.55.08.1.23.15.47.14.17,0,.31-.02.4-.07.09-.04.16-.1.2-.17.04-.07.07-.15.07-.25,0-.1,0-.21-.02-.32l-1.02-6.42c-.04-.26-.16-.47-.33-.61-.17-.14-.37-.21-.59-.21s-.42.06-.59.17c-.16.11-.3.34-.4.68l-1.37,4.99-1.41-4.97c-.11-.35-.24-.58-.4-.7-.16-.11-.37-.17-.61-.17s-.44.07-.6.2c-.16.13-.26.33-.29.58l-1.02,6.46c-.05.3-.04.51.05.63.08.12.24.17.46.17.28,0,.48-.06.58-.18.11-.12.18-.32.22-.58l.56-4.03c.03-.15.07-.33.2-.33.09,0,.16.1.23.32.21.7.44,1.44.67,2.18.23.72.45,1.44.68,2.18.02.08.05.15.07.2.02.05.06.09.11.13.05.04.11.06.19.08.08.02.19.03.32.03.24,0,.4-.04.47-.11.08-.08.14-.19.18-.32l1.33-4.37c.04-.13.11-.3.24-.3Z"/>
        </g>
        <g>
          <path class="cls-5" d="M57.89,55.87c-.18.39-.41.65-.68.8-.27.14-.6.22-.98.22s-.74-.07-1.06-.21c-.32-.14-.59-.35-.82-.62-.23-.27-.41-.6-.53-.99-.13-.39-.19-.84-.19-1.34,0-.62.07-1.13.22-1.55.15-.42.34-.76.58-1.01.24-.26.52-.44.84-.55s.64-.17.98-.17c.38,0,.72.1,1.01.3s.51.5.66.88v-.48c0-.12.06-.25.18-.39.12-.14.31-.21.56-.21.25,0,.44.08.56.21.12.13.18.26.18.38v5.07c0,.12-.05.25-.15.38-.1.13-.3.2-.61.21-.16,0-.28-.02-.38-.06-.09-.04-.17-.09-.23-.15s-.1-.13-.12-.19-.03-.13-.03-.19v-.35ZM55.13,53.73c0,.69.14,1.19.4,1.49.26.3.61.46,1.07.46s.79-.17,1.01-.52c.21-.35.32-.82.31-1.42,0-.62-.12-1.1-.34-1.46s-.55-.55-1-.56c-.45,0-.81.15-1.07.48-.26.33-.39.84-.38,1.53Z"/>
          <path class="cls-5" d="M56.23,56.94c-.39,0-.76-.07-1.09-.22-.33-.14-.61-.36-.85-.63-.23-.27-.42-.61-.54-1.01-.13-.4-.19-.85-.19-1.36,0-.62.07-1.15.22-1.57.15-.42.35-.77.59-1.04.25-.26.54-.45.86-.57.32-.11.66-.17,1-.17.39,0,.74.11,1.04.31.23.16.42.38.57.66v-.2c0-.14.07-.28.2-.43.13-.15.34-.22.61-.22.27,0,.47.09.61.23.13.14.2.29.2.42v5.07c0,.13-.05.27-.16.42-.11.15-.33.23-.66.23h0c-.17,0-.3-.02-.4-.06-.1-.04-.19-.09-.25-.16-.07-.07-.11-.14-.13-.22-.02-.07-.03-.14-.03-.21v-.11c-.17.28-.36.49-.59.61-.28.15-.62.22-1.01.22ZM56.24,50.51c-.33,0-.66.05-.96.16-.31.11-.58.29-.81.54-.23.25-.43.59-.57.99-.14.41-.22.92-.22,1.53,0,.49.06.94.19,1.32.12.38.3.71.52.97.22.26.49.46.8.6.31.14.66.21,1.04.21s.7-.07.96-.21c.26-.14.47-.4.65-.77l.11-.24v.62c0,.06,0,.11.03.18.02.06.05.11.1.17.05.05.12.1.21.13.09.04.21.05.36.05.29,0,.48-.07.56-.19.09-.12.14-.24.14-.35v-5.07c0-.11-.06-.22-.17-.34-.11-.12-.29-.18-.52-.19-.23,0-.41.06-.52.19-.11.12-.17.24-.17.35v.8l-.12-.3c-.14-.37-.36-.66-.64-.85-.28-.19-.61-.29-.97-.29ZM56.6,55.74c-.48,0-.85-.16-1.12-.48-.27-.31-.4-.83-.41-1.53h0c0-.7.12-1.23.39-1.57.27-.34.64-.51,1.12-.51.47.02.83.22,1.05.59.22.37.34.87.35,1.49,0,.61-.1,1.1-.32,1.45-.22.36-.58.55-1.06.55ZM56.55,51.77c-.41,0-.75.16-.99.46-.25.32-.37.82-.37,1.49h0c0,.67.14,1.16.38,1.45.24.29.59.43,1.03.43s.75-.16.96-.49c.21-.33.31-.8.3-1.39,0-.6-.12-1.08-.33-1.43-.21-.35-.52-.52-.95-.54,0,0-.02,0-.03,0Z"/>
        </g>
        <g>
          <path class="cls-5" d="M63.16,51.96v2.55c0,.21,0,.39.02.52s.05.24.09.32.12.13.21.17c.09.03.21.05.36.05.14,0,.28-.04.43-.11s.28-.14.4-.19c.14-.06.27-.06.38,0,.11.06.17.2.17.42s-.04.39-.13.53c-.09.14-.21.25-.36.34-.15.09-.33.15-.53.19-.2.04-.42.07-.66.07-.26,0-.51,0-.74-.05-.23-.04-.43-.12-.6-.24-.17-.12-.3-.29-.4-.5-.1-.21-.15-.48-.15-.81v-3.26h-.47c-.22,0-.37-.06-.44-.18-.08-.12-.11-.29-.11-.51s.04-.39.11-.49c.07-.1.21-.15.41-.15h.51v-.59c0-.24.05-.43.14-.55.09-.12.3-.18.62-.18s.54.05.62.15c.08.1.12.25.12.45v.72h1.23c.28,0,.46.05.54.15.08.1.13.26.14.48,0,.22-.04.39-.13.51-.09.12-.29.18-.59.18h-1.19Z"/>
          <path class="cls-5" d="M63.44,56.89c-.22,0-.43-.02-.63-.05-.24-.04-.45-.13-.62-.26-.18-.13-.32-.3-.42-.52-.1-.21-.15-.5-.15-.84v-3.2h-.41c-.24,0-.41-.07-.5-.2-.08-.13-.12-.31-.12-.54,0-.24.04-.41.12-.52.08-.11.24-.17.46-.17h.45v-.53c0-.25.05-.45.15-.58.1-.14.32-.21.67-.21s.57.06.66.18c.09.11.13.28.13.49v.66h1.17c.3,0,.49.06.59.18.09.11.14.29.15.52,0,.23-.04.42-.14.55-.11.13-.32.2-.64.2h-1.13v2.49c0,.21,0,.38.02.52.01.13.04.23.09.3.04.07.1.11.18.14.08.03.2.04.34.04.13,0,.27-.04.4-.11.14-.08.28-.14.41-.2.16-.07.31-.07.43,0,.13.08.2.23.2.47s-.05.41-.14.56c-.09.15-.22.27-.38.36-.16.09-.34.16-.55.2-.21.04-.43.07-.67.07-.04,0-.08,0-.12,0ZM61.16,50.7c-.18,0-.31.04-.37.12-.06.09-.1.24-.1.45s.03.37.1.47c.06.1.2.15.39.15h.53v3.32c0,.32.05.59.14.79.09.2.22.36.38.47.16.12.35.19.57.23.23.04.47.06.72.05.23,0,.45-.03.65-.07.19-.04.37-.1.51-.19.14-.08.25-.19.33-.32.08-.13.12-.3.12-.5,0-.19-.05-.31-.14-.36-.09-.05-.2-.06-.33,0-.12.05-.26.12-.4.19-.15.08-.3.12-.46.12s-.28-.02-.38-.05c-.1-.04-.19-.1-.24-.19-.05-.09-.09-.2-.1-.35-.02-.14-.02-.32-.02-.53v-2.61h1.25c.28,0,.46-.05.55-.15.08-.11.12-.26.12-.47,0-.21-.05-.36-.12-.45-.07-.09-.24-.13-.49-.13h-1.29v-.78c0-.18-.04-.32-.11-.41-.05-.06-.18-.13-.57-.13-.3,0-.5.05-.57.16-.08.11-.12.28-.12.51v.65h-.57Z"/>
        </g>
        <g>
          <path class="cls-5" d="M69.21,56.94c-.48,0-.9-.08-1.26-.23s-.65-.37-.89-.64-.42-.61-.53-1.01c-.12-.39-.18-.84-.18-1.32s.06-.91.18-1.31c.12-.4.3-.75.54-1.04.24-.29.54-.52.9-.69.36-.17.77-.25,1.25-.25s.83.08,1.15.23c.32.15.58.36.78.62.2.26.35.56.44.9.09.34.14.7.14,1.08,0,.32-.04.56-.13.73-.09.17-.25.25-.49.25h-3.26c0,.17.02.35.06.51s.11.32.22.46c.11.14.25.25.43.33s.4.13.68.13c.36,0,.63-.05.84-.15.2-.1.36-.22.48-.35.09-.1.17-.16.26-.18.09-.02.17-.02.24,0,.07.02.14.05.2.09.06.04.11.07.15.09.15.11.21.27.18.47-.03.2-.14.4-.34.59-.19.19-.46.36-.81.5s-.75.21-1.23.21ZM70.27,53.17c0-.19-.02-.37-.05-.55-.03-.18-.09-.33-.17-.47-.08-.13-.19-.24-.33-.32-.14-.08-.32-.12-.54-.12-.28,0-.51.05-.69.14-.17.09-.31.22-.4.36s-.16.31-.19.48c-.03.17-.05.33-.05.47h2.42Z"/>
          <path class="cls-5" d="M69.21,57c-.49,0-.92-.08-1.28-.23-.36-.15-.67-.38-.91-.66-.24-.28-.43-.63-.55-1.03-.12-.4-.18-.85-.18-1.34s.06-.92.18-1.33c.12-.41.31-.77.55-1.06.25-.3.55-.54.92-.7.36-.17.79-.26,1.27-.26s.85.08,1.18.23c.32.16.59.37.8.63.21.26.36.57.46.92.1.35.14.72.14,1.1,0,.33-.05.58-.14.76-.1.19-.28.28-.54.28h-3.2c0,.15.02.3.06.44.04.16.11.3.21.43.1.13.24.23.41.31.17.08.39.12.66.12.34,0,.62-.05.81-.15.19-.1.35-.21.46-.33.09-.11.19-.17.29-.2.1-.03.19-.03.27,0,.08.02.15.05.22.09.06.04.11.07.15.09.18.13.24.31.21.53-.03.21-.15.42-.35.63-.2.2-.48.37-.83.51-.35.14-.77.22-1.25.22ZM69.21,50.51c-.46,0-.87.08-1.22.25-.35.16-.64.39-.87.67-.23.28-.41.63-.53,1.02-.12.39-.18.83-.18,1.29s.06.92.18,1.3c.12.38.29.72.52.99.23.27.52.48.87.63.35.15.76.22,1.23.22s.87-.07,1.2-.21c.33-.14.6-.3.79-.49.18-.18.29-.37.32-.56.03-.18-.02-.32-.16-.42-.03-.02-.08-.05-.14-.09-.05-.03-.12-.06-.18-.08-.07-.02-.13-.01-.21,0-.07.02-.15.07-.23.16-.12.13-.29.26-.5.36-.21.11-.5.16-.86.16-.28,0-.52-.04-.71-.13-.19-.09-.34-.2-.45-.35-.11-.14-.19-.3-.23-.48-.04-.17-.06-.35-.06-.53v-.06h3.32c.21,0,.36-.07.43-.22.08-.16.12-.39.12-.7,0-.37-.05-.73-.14-1.07-.09-.33-.24-.63-.43-.88-.19-.25-.45-.45-.76-.6-.31-.15-.68-.22-1.12-.22ZM70.33,53.23h-2.54v-.06c0-.15.02-.31.05-.48.03-.18.1-.35.2-.5.1-.16.24-.29.42-.38.18-.1.42-.15.72-.15.23,0,.42.04.57.13.15.08.26.2.35.34.09.14.15.3.18.49.03.18.05.37.05.56v.06ZM67.91,53.11h2.3c0-.16-.02-.33-.05-.48-.03-.17-.09-.32-.16-.45-.08-.12-.18-.22-.31-.3-.13-.07-.3-.11-.51-.11-.27,0-.5.05-.66.14-.16.09-.29.21-.38.34-.09.14-.15.29-.18.46-.03.14-.04.28-.05.4Z"/>
        </g>
        <g>
          <path class="cls-2" d="M78.92,54.91l-.52,1.31c-.07.18-.17.33-.3.44-.13.11-.31.17-.56.17s-.44-.06-.59-.19c-.15-.13-.16-.35-.05-.66l2.44-6.85c.04-.12.12-.23.25-.32s.31-.14.53-.14.4.05.53.14c.13.09.22.2.26.32l2.47,6.87c.1.29.07.5-.08.63s-.34.2-.59.2c-.24,0-.43-.04-.55-.15-.12-.11-.21-.24-.27-.39l-.57-1.37h-2.41ZM81.05,53.63l-.91-2.82-.91,2.82h1.83Z"/>
          <path class="cls-2" d="M82.67,56.89c-.24,0-.42-.06-.54-.17-.13-.12-.22-.26-.29-.41l-.55-1.33h-2.33l-.51,1.27c-.07.19-.18.35-.31.46-.14.12-.34.18-.6.18s-.47-.07-.63-.21c-.17-.15-.19-.39-.07-.73l2.44-6.85c.04-.13.14-.25.28-.35.14-.1.33-.15.56-.15s.42.05.56.15c.14.1.23.22.28.35l2.47,6.87c.1.31.07.55-.09.7-.16.14-.37.21-.63.21-.02,0-.03,0-.05,0ZM78.88,54.85h2.49l.58,1.4c.06.14.15.27.26.37.11.1.28.14.5.14.23,0,.41-.06.55-.18.13-.12.15-.3.06-.57l-2.47-6.87c-.04-.11-.12-.21-.23-.3-.12-.09-.29-.13-.49-.13s-.37.04-.49.13c-.12.09-.2.19-.23.29l-2.44,6.85c-.1.28-.09.48.04.6.13.12.32.18.55.18s.4-.05.52-.15c.12-.1.21-.24.28-.41l.54-1.35ZM81.13,53.69h-1.99l1-3.08,1,3.08ZM79.3,53.57h1.66l-.83-2.57-.83,2.57Z"/>
        </g>
        <g>
          <path class="cls-5" d="M86.5,54.08c0,.24.02.46.05.65.03.19.09.35.17.48s.2.23.35.3.34.1.57.1c.19,0,.37-.02.53-.07.16-.05.3-.12.42-.23.11-.11.21-.26.27-.45.07-.19.1-.43.1-.72v-3.1c0-.13.07-.24.21-.34.14-.09.31-.14.53-.14s.39.05.53.15c.14.1.21.21.21.33v5.31c0,.14-.07.25-.22.34-.15.09-.32.14-.53.14s-.38-.05-.52-.14c-.14-.09-.21-.21-.21-.34v-.57c-.07.14-.16.27-.26.4s-.22.25-.36.35-.3.19-.48.26c-.18.06-.38.1-.6.1-.31,0-.6-.05-.87-.15-.27-.1-.5-.24-.71-.43-.2-.19-.36-.42-.48-.7-.12-.28-.18-.6-.18-.97v-3.6c0-.14.07-.25.2-.34.13-.09.31-.14.53-.14s.4.05.54.14c.14.09.21.2.21.34v3.04Z"/>
          <path class="cls-5" d="M87.26,56.94c-.31,0-.61-.05-.89-.15-.28-.1-.52-.25-.73-.44-.21-.19-.37-.43-.49-.72-.12-.29-.18-.62-.18-.99v-3.6c0-.16.07-.29.22-.39.14-.1.33-.15.56-.15s.43.05.57.15c.16.1.23.23.23.39v3.04c0,.24.02.46.05.64.03.18.08.33.16.46.08.12.19.21.32.27.14.06.33.1.54.1.18,0,.35-.02.51-.07.15-.04.28-.12.39-.22.11-.1.19-.25.26-.43.06-.18.1-.42.1-.7v-3.1c0-.15.08-.28.23-.39.15-.1.34-.15.56-.15s.41.05.56.16c.15.11.23.24.23.38v5.31c0,.16-.08.29-.25.39-.15.1-.34.15-.56.15s-.4-.05-.55-.15c-.16-.1-.23-.23-.23-.39v-.35c-.05.07-.09.14-.15.21-.1.13-.23.26-.37.36-.14.11-.31.2-.5.27-.19.07-.4.1-.63.1ZM85.75,50.62c-.21,0-.37.04-.49.13-.11.08-.17.18-.17.29v3.6c0,.36.06.67.17.94.11.27.27.5.47.68.19.18.43.32.69.42.26.1.55.14.85.14.21,0,.41-.03.58-.09.17-.06.33-.15.46-.25.13-.1.25-.22.34-.34.1-.13.18-.26.25-.39l.11-.22v.81c0,.12.06.21.18.29.13.08.29.13.48.13s.36-.04.5-.13c.13-.08.19-.18.19-.29v-5.31c0-.1-.06-.19-.18-.28-.13-.09-.29-.14-.49-.14s-.37.04-.49.13c-.12.08-.18.18-.18.29v3.1c0,.29-.03.54-.1.74-.07.2-.17.36-.29.47-.12.12-.27.2-.44.25-.17.05-.35.07-.54.07-.24,0-.44-.04-.59-.11-.16-.07-.29-.18-.38-.32-.09-.14-.15-.3-.18-.5-.03-.19-.05-.41-.05-.66v-3.04c0-.12-.06-.21-.18-.29-.13-.08-.3-.13-.51-.13Z"/>
        </g>
        <g>
          <path class="cls-5" d="M94.45,55.62c.26,0,.48-.06.66-.17.18-.11.27-.27.27-.48,0-.09-.02-.17-.05-.24s-.1-.14-.2-.21-.23-.13-.4-.19-.39-.13-.66-.21c-.33-.09-.62-.19-.85-.28-.24-.1-.43-.22-.59-.35-.15-.14-.27-.3-.34-.49-.08-.19-.11-.42-.11-.68,0-.28.06-.53.18-.76.12-.22.28-.41.49-.57s.45-.27.73-.35.57-.12.88-.12c.32,0,.62.03.9.1.27.07.51.16.7.26.19.11.35.22.46.34s.17.23.17.33c0,.23-.04.44-.12.63s-.21.29-.38.29c-.06,0-.11-.02-.17-.06-.06-.04-.13-.1-.24-.19-.18-.14-.36-.25-.55-.33-.18-.08-.43-.13-.76-.14-.21,0-.39.03-.56.11-.17.08-.25.22-.25.42,0,.09.02.17.06.23.04.06.11.12.21.17.1.05.24.1.4.15.16.05.37.11.62.18.27.08.52.16.76.26.24.1.44.22.62.36.17.14.31.32.41.53.1.21.15.46.15.76s-.07.58-.21.82c-.14.24-.33.45-.56.62-.23.17-.5.3-.79.39-.29.09-.59.14-.89.14-.36,0-.68-.05-.98-.14s-.55-.2-.75-.32-.37-.25-.48-.39c-.11-.13-.17-.24-.17-.34s0-.19.02-.29c.02-.1.04-.2.08-.28.04-.09.09-.16.15-.22.06-.06.14-.09.23-.09.08,0,.16.04.25.13.09.08.2.18.34.28.14.1.32.2.53.28.22.08.49.13.82.13Z"/>
          <path class="cls-5" d="M94.4,56.94c-.36,0-.69-.05-1-.14-.3-.09-.56-.2-.77-.33-.21-.13-.38-.26-.49-.4-.13-.14-.19-.27-.19-.37,0-.1,0-.2.02-.3.02-.11.05-.21.09-.3.04-.09.1-.17.16-.24.07-.07.16-.11.27-.11.09,0,.19.05.29.14.08.08.19.17.33.27.13.1.31.19.52.27.21.08.48.12.8.12.25,0,.46-.05.63-.16.16-.1.24-.24.24-.43,0-.08-.02-.15-.05-.22-.03-.06-.09-.12-.18-.18-.1-.06-.23-.13-.39-.19-.17-.06-.38-.13-.65-.21-.33-.09-.62-.19-.86-.29-.24-.1-.45-.22-.6-.36-.16-.14-.28-.31-.36-.51-.08-.2-.12-.43-.12-.7,0-.29.06-.55.19-.79.12-.23.29-.43.51-.59.21-.16.47-.28.75-.36.28-.08.58-.12.89-.12.33,0,.63.04.91.1.28.07.52.16.71.27.2.11.36.23.47.35.12.13.18.26.18.37,0,.23-.04.45-.12.65-.09.22-.24.33-.43.33-.07,0-.14-.03-.2-.08-.06-.04-.14-.1-.24-.19-.17-.13-.35-.24-.53-.32-.17-.08-.42-.12-.74-.13-.19,0-.38.03-.54.11-.15.07-.22.19-.22.37,0,.08.02.15.05.19.03.05.1.1.19.14.1.05.23.1.39.15.16.05.37.11.62.18.27.08.53.16.77.26.24.1.45.23.63.37.18.15.32.33.43.55.1.22.15.48.15.78s-.07.6-.22.85c-.15.25-.34.46-.58.63-.24.17-.51.3-.81.4-.3.09-.6.14-.91.14ZM92.5,54.87c-.08,0-.14.02-.19.07-.05.06-.1.12-.14.2-.04.08-.06.17-.08.27-.02.1-.02.19-.02.28,0,.05.03.15.16.3.11.13.27.25.47.38.2.12.45.23.74.32.29.09.61.13.96.13.29,0,.59-.05.87-.13.28-.09.54-.22.77-.38.22-.16.41-.36.55-.6.14-.23.2-.5.2-.79s-.05-.53-.14-.73c-.09-.2-.23-.37-.39-.51-.17-.14-.37-.26-.6-.36-.23-.1-.49-.18-.75-.26-.25-.07-.46-.13-.62-.18-.16-.05-.3-.11-.4-.16-.11-.05-.19-.12-.24-.19-.05-.07-.07-.16-.07-.26,0-.22.1-.38.29-.48.18-.09.38-.13.59-.12.33,0,.59.06.78.14.19.09.37.2.56.34.1.08.18.15.24.19.04.03.09.05.13.05.15,0,.25-.08.32-.25.08-.19.11-.39.11-.61,0-.08-.05-.18-.15-.29-.11-.12-.25-.23-.44-.33-.19-.1-.42-.19-.69-.26-.27-.07-.56-.1-.88-.1-.3,0-.59.04-.86.12-.27.08-.51.19-.71.34-.2.15-.36.33-.47.55-.11.21-.17.46-.17.73s.04.48.11.66c.07.18.18.34.33.47.15.13.34.25.57.34.23.1.52.19.85.28.28.08.5.15.66.21.17.07.31.13.41.2.11.07.18.15.22.23.04.08.06.17.06.27,0,.23-.1.4-.29.53-.19.12-.42.18-.69.18-.34,0-.62-.04-.85-.13-.22-.08-.4-.18-.55-.29-.15-.11-.26-.2-.34-.28-.08-.07-.15-.11-.21-.11Z"/>
        </g>
        <g>
          <path class="cls-5" d="M100.46,51.96v2.55c0,.21,0,.39.02.52.02.14.05.24.1.32s.12.13.21.17c.09.03.21.05.36.05s.28-.04.43-.11c.14-.08.28-.14.4-.19.14-.06.27-.06.38,0s.17.2.17.42-.04.39-.13.53-.21.25-.36.34-.33.15-.53.19c-.2.04-.42.07-.66.07-.26,0-.51,0-.74-.05-.23-.04-.43-.12-.6-.24-.17-.12-.3-.29-.4-.5-.1-.21-.15-.48-.15-.81v-3.26h-.47c-.22,0-.37-.06-.45-.18s-.11-.29-.11-.51.04-.39.11-.49.21-.15.41-.15h.51v-.59c0-.24.05-.43.14-.55.09-.12.3-.18.62-.18s.54.05.62.15c.08.1.12.25.12.45v.72h1.23c.28,0,.46.05.54.15.08.1.13.26.14.48,0,.22-.04.39-.13.51-.1.12-.29.18-.59.18h-1.19Z"/>
          <path class="cls-5" d="M100.73,56.89c-.22,0-.43-.02-.63-.05-.24-.04-.45-.13-.62-.26-.18-.13-.32-.3-.42-.52-.1-.21-.15-.5-.15-.84v-3.2h-.41c-.24,0-.41-.07-.5-.2-.08-.13-.12-.3-.12-.54s.04-.41.12-.52c.08-.11.24-.17.46-.17h.45v-.53c0-.26.05-.45.15-.58.1-.14.32-.21.67-.21s.57.06.66.18c.09.11.13.28.13.49v.66h1.17c.3,0,.49.06.59.18.09.11.14.28.15.52,0,.23-.04.42-.14.55-.11.13-.32.2-.64.2h-1.13v2.49c0,.21,0,.38.02.52.01.13.04.23.09.3.04.07.1.11.18.14.08.03.2.04.34.04.13,0,.27-.04.4-.11.14-.08.28-.14.41-.2.16-.07.3-.07.43,0,.13.08.2.23.2.47s-.05.41-.14.56c-.09.15-.22.27-.38.36-.15.09-.34.16-.55.2-.21.04-.43.07-.67.07-.04,0-.08,0-.12,0ZM98.46,50.7c-.18,0-.31.04-.37.12-.06.09-.1.24-.1.45s.03.37.1.47c.06.1.2.15.39.15h.53v3.32c0,.33.05.59.14.79.09.2.22.36.38.47.16.12.35.19.57.23.23.04.47.06.72.05.23,0,.45-.03.65-.07.19-.04.37-.1.51-.19.14-.08.25-.19.34-.32.08-.13.12-.3.12-.5,0-.19-.05-.31-.14-.36-.09-.06-.2-.06-.33,0-.13.05-.26.12-.4.19-.15.08-.3.12-.46.12s-.28-.02-.38-.05c-.1-.04-.19-.1-.24-.19-.05-.09-.09-.2-.1-.35-.02-.14-.02-.32-.02-.53v-2.61h1.25c.28,0,.46-.05.55-.15.08-.11.12-.26.12-.47,0-.21-.05-.36-.12-.45-.07-.09-.24-.13-.49-.13h-1.29v-.78c0-.18-.04-.32-.11-.41-.05-.06-.18-.13-.57-.13-.3,0-.5.05-.57.16-.08.11-.12.28-.12.51v.65h-.57Z"/>
        </g>
        <g>
          <path class="cls-5" d="M107.15,51.71c-.28,0-.52.05-.73.15-.21.1-.38.24-.52.41-.14.17-.24.38-.31.63-.07.24-.1.5-.1.79v2.67c0,.13-.07.24-.21.34-.14.09-.31.14-.53.14s-.39-.05-.53-.15-.21-.21-.21-.33v-5.31c0-.14.07-.25.22-.34.15-.09.32-.14.53-.14s.38.05.52.14c.14.09.21.2.21.34v.8c.07-.14.16-.28.26-.44.1-.16.22-.31.36-.45s.3-.26.47-.35c.18-.1.38-.14.61-.14.12,0,.21.02.28.06s.13.08.17.14c.04.05.07.11.08.17s.02.12.02.17c0,.29-.05.48-.15.58s-.24.15-.43.15Z"/>
          <path class="cls-5" d="M104.75,56.89c-.23,0-.41-.05-.56-.16-.15-.11-.23-.24-.23-.38v-5.31c0-.16.08-.29.25-.39.15-.1.34-.15.56-.15s.4.05.55.15c.16.1.23.23.23.39v.56c.04-.08.09-.16.14-.24.1-.16.22-.32.36-.46.14-.14.31-.27.49-.36.19-.1.4-.15.64-.15.13,0,.23.02.31.06.08.04.14.09.19.15.04.06.07.13.09.19.01.06.02.13.02.18,0,.31-.05.51-.17.62-.11.11-.27.17-.47.17-.27,0-.5.05-.7.14-.2.09-.37.23-.5.39-.13.17-.23.37-.3.61-.07.24-.1.5-.1.77v2.67c0,.15-.08.28-.23.39-.15.1-.34.15-.56.15ZM104.76,50.62c-.19,0-.36.04-.5.13-.13.08-.19.17-.19.29v5.31c0,.1.06.19.18.28.13.09.29.14.49.14s.37-.04.49-.13c.12-.08.18-.18.18-.29v-2.67c0-.29.03-.56.1-.8.07-.25.18-.47.32-.65.14-.18.33-.32.54-.43.22-.1.47-.15.75-.15.17,0,.3-.04.39-.13.09-.09.13-.27.13-.54,0-.05,0-.1-.02-.16-.01-.05-.03-.1-.07-.15-.03-.05-.08-.09-.15-.12-.06-.03-.15-.05-.26-.05-.22,0-.41.05-.58.14-.17.09-.33.21-.46.34-.14.14-.25.29-.35.44-.1.16-.18.31-.25.44l-.11.22v-1.04c0-.12-.06-.21-.18-.29-.13-.08-.29-.13-.48-.13Z"/>
        </g>
        <g>
          <path class="cls-5" d="M113.18,55.87c-.18.39-.41.65-.68.8-.27.14-.6.22-.98.22s-.74-.07-1.06-.21c-.32-.14-.6-.35-.82-.62s-.41-.6-.53-.99c-.13-.39-.19-.84-.19-1.34,0-.62.07-1.13.22-1.55.15-.42.34-.76.58-1.01.24-.26.52-.44.84-.55.32-.11.64-.17.98-.17.38,0,.72.1,1.01.3.29.2.51.5.66.88v-.48c0-.12.06-.25.18-.39.12-.14.31-.21.56-.21.25,0,.44.08.56.21.12.13.18.26.18.38v5.07c0,.12-.05.25-.15.38-.1.13-.3.2-.61.21-.16,0-.28-.02-.38-.06-.09-.04-.17-.09-.23-.15s-.1-.13-.12-.19c-.02-.07-.03-.13-.03-.19v-.35ZM110.43,53.73c0,.69.14,1.19.4,1.49.26.3.61.46,1.07.46s.79-.17,1.01-.52.32-.82.31-1.42c0-.62-.12-1.1-.34-1.46s-.55-.55-1-.56c-.45,0-.81.15-1.07.48-.26.33-.39.84-.38,1.53Z"/>
          <path class="cls-5" d="M111.52,56.94c-.39,0-.76-.07-1.09-.22-.33-.14-.61-.36-.85-.63-.23-.28-.42-.62-.54-1.01-.13-.4-.19-.85-.19-1.36,0-.62.08-1.15.22-1.57.15-.42.35-.77.59-1.04.25-.26.54-.45.86-.57.32-.11.66-.17,1-.17.39,0,.74.11,1.04.31.23.16.42.38.57.66v-.2c0-.14.07-.28.2-.43.13-.15.34-.22.61-.22.27,0,.47.09.61.23.13.14.2.29.2.42v5.07c0,.13-.05.27-.16.42-.11.15-.33.23-.66.23h0c-.17,0-.3-.02-.4-.06-.1-.04-.19-.1-.25-.16-.07-.07-.11-.14-.13-.22-.02-.07-.03-.14-.03-.21v-.11c-.17.28-.36.49-.59.61-.28.15-.62.22-1.01.22ZM111.54,50.51c-.33,0-.66.05-.96.16-.31.11-.58.29-.81.54-.23.25-.43.59-.57.99-.14.41-.22.92-.22,1.53,0,.49.06.94.19,1.32.12.38.3.71.52.97.22.26.49.46.8.6.31.14.66.21,1.04.21s.7-.07.96-.21c.26-.14.47-.4.65-.77l.11-.24v.62c0,.06,0,.11.03.18.02.06.05.11.1.17.05.05.12.1.21.13.09.04.21.05.36.05.29,0,.48-.07.56-.19.09-.12.14-.24.14-.35v-5.07c0-.11-.06-.22-.17-.34-.11-.12-.29-.18-.52-.19-.24,0-.41.06-.52.19-.11.12-.17.24-.17.35v.8l-.12-.3c-.14-.37-.36-.66-.64-.86-.28-.19-.61-.29-.97-.29ZM111.9,55.74c-.48,0-.85-.16-1.12-.48-.27-.31-.4-.83-.41-1.53h0c0-.7.12-1.23.39-1.57.27-.34.64-.51,1.12-.51.47.02.83.22,1.05.59.22.37.34.87.35,1.49,0,.61-.1,1.1-.32,1.45-.22.36-.58.55-1.06.55ZM111.85,51.77c-.41,0-.75.16-.99.46-.25.32-.37.82-.37,1.49h0c0,.67.14,1.16.38,1.45.24.29.59.43,1.03.43s.75-.16.96-.49c.21-.33.31-.8.3-1.39,0-.6-.12-1.08-.33-1.43-.21-.35-.52-.52-.95-.54,0,0-.02,0-.03,0Z"/>
        </g>
        <g>
          <path class="cls-5" d="M116.39,48.69c0-.17.06-.31.17-.4.11-.1.31-.14.58-.14s.46.05.58.15c.11.1.17.24.17.41v7.64c0,.14-.07.25-.2.34-.13.09-.32.14-.55.14s-.41-.05-.55-.14c-.13-.09-.2-.21-.2-.34v-7.65Z"/>
          <path class="cls-5" d="M117.13,56.89c-.24,0-.44-.05-.58-.15-.15-.1-.23-.23-.23-.39v-7.65c0-.19.07-.34.19-.45.13-.11.33-.16.61-.16s.49.05.61.16c.13.11.19.26.19.46v7.64c0,.16-.08.29-.23.39-.14.1-.34.15-.58.15ZM117.13,48.21c-.25,0-.43.04-.54.13-.1.08-.15.2-.15.36v7.65c0,.12.06.21.18.29.12.08.29.13.51.13s.39-.04.51-.13c.12-.08.18-.18.18-.29v-7.64c0-.16-.05-.28-.15-.36-.1-.09-.28-.13-.54-.13Z"/>
        </g>
        <g>
          <path class="cls-5" d="M119.83,49.19c0-.22.08-.4.23-.55.15-.15.35-.22.57-.22s.42.07.58.22.23.33.23.55-.08.4-.23.55c-.15.15-.35.22-.58.22s-.42-.07-.57-.22c-.15-.15-.23-.33-.23-.55ZM121.38,56.23c0,.14-.07.28-.2.4s-.32.19-.55.19-.41-.06-.55-.18c-.13-.12-.2-.26-.2-.41v-5.01c0-.23.08-.39.24-.5s.33-.16.51-.16.35.05.51.15c.16.1.24.27.24.51v5.01Z"/>
          <path class="cls-5" d="M120.63,56.89c-.24,0-.44-.07-.59-.2-.15-.13-.22-.29-.22-.45v-5.01c0-.25.09-.43.26-.55.33-.22.75-.22,1.09,0,.18.11.26.3.26.56v5.01c0,.16-.07.31-.22.45-.15.14-.34.2-.59.2ZM120.63,50.62c-.17,0-.33.05-.48.15-.14.1-.21.24-.21.45v5.01c0,.14.06.25.18.37.12.11.29.17.51.17s.38-.06.5-.17c.12-.11.18-.23.18-.36v-5.01c0-.22-.07-.36-.21-.46-.15-.1-.31-.14-.48-.14ZM120.63,50.03c-.24,0-.45-.08-.62-.24-.17-.16-.25-.36-.25-.6s.08-.44.25-.6c.16-.16.37-.24.62-.24s.45.08.62.24c.17.16.25.36.25.6s-.08.44-.25.6c-.16.16-.37.24-.62.24ZM120.63,48.48c-.21,0-.39.07-.53.21-.14.14-.21.3-.21.51s.07.37.21.51c.14.14.32.21.53.21s.39-.07.53-.21c.14-.14.21-.3.21-.51s-.07-.37-.21-.51c-.14-.14-.32-.21-.53-.21Z"/>
        </g>
        <g>
          <path class="cls-5" d="M127.3,55.87c-.18.39-.41.65-.68.8-.27.14-.6.22-.98.22s-.74-.07-1.06-.21c-.32-.14-.59-.35-.82-.62s-.41-.6-.53-.99c-.13-.39-.19-.84-.19-1.34,0-.62.07-1.13.22-1.55s.34-.76.58-1.01c.24-.26.52-.44.84-.55.32-.11.64-.17.98-.17.38,0,.72.1,1.01.3.29.2.51.5.66.88v-.48c0-.12.06-.25.18-.39.12-.14.31-.21.56-.21.25,0,.44.08.56.21.12.13.18.26.18.38v5.07c0,.12-.05.25-.15.38-.1.13-.3.2-.61.21-.16,0-.28-.02-.38-.06-.1-.04-.17-.09-.23-.15s-.1-.13-.12-.19c-.02-.07-.03-.13-.03-.19v-.35ZM124.55,53.73c0,.69.14,1.19.4,1.49.26.3.61.46,1.07.46s.79-.17,1.01-.52c.21-.35.32-.82.31-1.42,0-.62-.12-1.1-.34-1.46-.22-.36-.55-.55-1-.56-.45,0-.81.15-1.07.48-.26.33-.39.84-.38,1.53Z"/>
          <path class="cls-5" d="M125.64,56.94c-.39,0-.76-.07-1.09-.22-.33-.14-.61-.36-.85-.63-.23-.27-.42-.61-.55-1.01-.13-.4-.19-.85-.19-1.36,0-.62.07-1.15.22-1.57.15-.42.35-.77.59-1.04.25-.26.54-.45.86-.57.32-.11.66-.17,1-.17.39,0,.74.11,1.04.31.23.16.42.38.57.66v-.2c0-.14.07-.28.2-.43.13-.15.34-.22.61-.22.27,0,.47.09.61.23.13.14.2.29.2.42v5.07c0,.13-.05.27-.16.42-.11.15-.33.23-.66.23h0c-.17,0-.3-.02-.4-.06-.1-.04-.19-.09-.25-.16-.07-.07-.11-.14-.13-.22-.02-.07-.03-.14-.03-.21v-.11c-.17.28-.36.49-.59.61-.28.15-.62.22-1.01.22ZM125.65,50.51c-.33,0-.66.05-.96.16-.31.11-.58.29-.81.54-.23.25-.43.58-.57.99-.14.41-.22.92-.22,1.53,0,.49.06.94.19,1.32.12.38.3.71.52.97.22.26.49.46.8.6.31.14.66.21,1.04.21s.7-.07.96-.21c.26-.14.47-.4.65-.77l.11-.24v.62c0,.06,0,.11.03.18.02.06.05.11.1.17.05.05.12.1.21.13.09.04.21.05.36.05.29,0,.48-.07.56-.19.09-.12.14-.24.14-.35v-5.07c0-.11-.06-.22-.17-.34-.11-.12-.29-.18-.52-.19-.23,0-.41.06-.52.19-.11.12-.17.24-.17.35v.8l-.12-.3c-.15-.37-.36-.66-.64-.86-.28-.19-.61-.29-.97-.29ZM126.02,55.74c-.48,0-.85-.16-1.12-.48-.27-.31-.4-.83-.41-1.53h0c0-.7.12-1.23.39-1.57.27-.34.63-.51,1.08-.51.01,0,.02,0,.03,0,.47.02.82.22,1.05.59.22.37.34.87.35,1.49,0,.61-.1,1.1-.32,1.45-.22.36-.58.55-1.06.55ZM124.6,53.73c0,.67.14,1.16.38,1.45.24.29.59.43,1.03.43s.75-.16.96-.49c.21-.33.31-.8.3-1.39,0-.6-.12-1.08-.33-1.43-.21-.34-.52-.52-.95-.53-.43-.01-.77.14-1.02.46-.25.32-.37.82-.37,1.49h0Z"/>
        </g>
      </g>
    </g>
  </g>
</svg>